<?xml version="1.0" encoding="UTF-8" standalone="no"?>
<svg xmlns="http://www.w3.org/2000/svg" viewBox="0 0 2560 1440" width="2560" height="1440">
  <defs>
    <linearGradient id="bg" x1="0" y1="0" x2="1" y2="1">
      <stop offset="0%" stop-color="#0a2540"/>
      <stop offset="55%" stop-color="#1e3a8a"/>
      <stop offset="100%" stop-color="#0a2540"/>
    </linearGradient>
    <radialGradient id="glow" cx="50%" cy="50%" r="50%">
      <stop offset="0%" stop-color="#f5b800" stop-opacity="0.18"/>
      <stop offset="100%" stop-color="#f5b800" stop-opacity="0"/>
    </radialGradient>
  </defs>

  <rect width="2560" height="1440" fill="url(#bg)"/>

  <circle cx="1280" cy="720" r="600" fill="url(#glow)"/>
  <circle cx="300" cy="200" r="280" fill="#f5b800" opacity="0.08"/>
  <circle cx="2300" cy="1240" r="320" fill="#1e3a8a" opacity="0.5"/>

  <g opacity="0.06" fill="#ffffff" font-family="Poppins, Arial, sans-serif" font-weight="800">
    <text x="100" y="180" font-size="46">UCLouvain</text>
    <text x="2100" y="260" font-size="46">ULB</text>
    <text x="180" y="1340" font-size="46">ULiège</text>
    <text x="2050" y="1380" font-size="46">UMons</text>
    <text x="2200" y="120" font-size="46">UNamur</text>
    <text x="80" y="900" font-size="46">UCLouvain</text>
  </g>

  <g transform="translate(507 509)">
    <rect width="1546" height="423" rx="32" fill="none" stroke="none"/>

    <g transform="translate(60 60)">
      <rect width="140" height="140" rx="28" fill="#f5b800"/>
      <text x="70" y="115" text-anchor="middle" font-family="Poppins, Arial, sans-serif" font-size="74" font-weight="800" fill="#0a2540">SA</text>
    </g>

    <text x="240" y="155" font-family="Poppins, Arial, sans-serif" font-size="76" font-weight="800">
      <tspan fill="#ffffff">Study</tspan><tspan fill="#f5b800">Already</tspan>
    </text>

    <text x="240" y="220" font-family="Inter, Arial, sans-serif" font-size="34" font-weight="600" fill="#cbd5e1" letter-spacing="3">CAMEROUN → BELGIQUE</text>

    <text x="60" y="330" font-family="Poppins, Arial, sans-serif" font-size="84" font-weight="800" fill="#ffffff">Étudier en Belgique,</text>
    <text x="60" y="415" font-family="Poppins, Arial, sans-serif" font-size="56" font-weight="700" fill="#f5b800">sans stress, avec un vrai accompagnement.</text>
  </g>

  <g transform="translate(2100 1100)">
    <rect width="60" height="40" fill="#007a5e"/>
    <rect x="60" width="60" height="40" fill="#ce1126"/>
    <rect x="120" width="60" height="40" fill="#fcd116"/>
    <rect x="225" width="40" height="40" fill="#000000"/>
    <rect x="265" width="40" height="40" fill="#fcd116"/>
    <rect x="305" width="40" height="40" fill="#ef3340"/>
    <text x="190" y="28" font-family="Inter, Arial, sans-serif" font-size="28" font-weight="700" fill="#ffffff">→</text>
  </g>

  <text x="80" y="1380" font-family="Inter, Arial, sans-serif" font-size="38" font-weight="600" fill="#f5b800">www.studyalready.com</text>
</svg>